<svg width="274" height="357" viewBox="0 0 274 357" fill="none" xmlns="http://www.w3.org/2000/svg">
<path fill-rule="evenodd" clip-rule="evenodd" d="M227.649 1.38035C224.337 4.17698 217.599 17.2954 218.336 19.512C218.53 20.0986 220.071 21.8418 221.758 23.386L224.826 26.1935L221.839 29.2993C220.197 31.0071 216.971 33.8283 214.672 35.5691C209.358 39.5912 206.149 43.0086 203.423 47.5442C198.884 55.0981 199.105 56.3523 205.895 61.5381C208.499 63.5258 212.87 67.0559 215.611 69.3815C223.017 75.6675 224.041 75.4679 232.325 66.1205C236.295 61.6418 237.738 58.8835 239.228 52.9313C240.017 49.7823 240.665 48.6983 243.351 46.0377L246.538 42.8803L249.089 44.7625C250.493 45.798 252.073 46.6453 252.602 46.6453C255.105 46.6453 262.494 38.8397 265.729 32.779C268.971 26.7034 268.085 24.1992 260.34 17.5537C249.871 8.57177 237.246 0.806889 231.964 0.102189C229.944 -0.167466 229.233 0.0434616 227.649 1.38035ZM178.934 11.9287C177.767 13.6005 178.304 15.2934 180.978 18.3645C182.214 19.7834 183.648 22.1912 184.165 23.715C185.39 27.3224 185.381 35.2755 184.145 41.3966C183.414 45.013 183.35 46.3218 183.878 46.8497C184.864 47.8348 186.416 45.635 188.884 39.7541C191.667 33.1212 192.502 29.2238 192.055 24.9381C191.61 20.6667 188.843 15.0717 185.887 12.468C183.407 10.2838 180.253 10.0393 178.934 11.9287ZM146.392 19.4904C145.271 19.9405 144.426 22.5106 144.846 24.1914C145.081 25.1292 146.371 26.2815 148.58 27.5268C157.448 32.5244 163.944 40.9544 169.026 54.0591C169.937 56.4081 171.027 58.3304 171.449 58.3304C172.597 58.3304 173.127 54.6349 172.517 50.8741C170.929 41.0695 166.436 32.6364 159.18 25.8441C153.399 20.433 149.219 18.3561 146.392 19.4904ZM202.054 74.6631C198.885 77.606 194.292 84.1796 193.672 86.661C193.049 89.149 194.354 89.5679 197 87.7289C198.58 86.6305 200.487 84.2275 202.665 80.5908C208.017 71.655 207.779 69.3467 202.054 74.6631ZM247.822 79.8639C243.766 80.9995 238.359 83.3071 233.927 85.7933C226.811 89.7854 227.632 90.5459 236.616 88.2831C241.525 87.0469 245.278 86.5226 250.51 86.3422C257.344 86.1067 259.444 86.3111 267.968 88.0429C271.381 88.7362 271.792 88.7062 272.925 87.6773C274.581 86.1738 274.283 83.3736 272.311 81.9073C268.867 79.3474 254.074 78.1129 247.822 79.8639ZM166.208 87.0649C163.411 88.3407 163.028 88.7643 161.878 91.8468C160.172 96.422 160.275 97.4035 162.692 99.6255L164.767 101.532L157.466 112.604C146.551 129.156 138.261 139.561 126.466 151.511C115.885 162.233 109.18 167.307 90.9204 178.411C74.8694 188.173 69.7715 193.491 54.6301 216.278C36.8773 242.995 7.95037 287.222 5.83236 290.887C0.836001 299.534 -0.95409 306.059 0.477025 310.409C0.851528 311.548 2.16199 313.444 3.38883 314.621C4.61567 315.798 15.1609 322.909 26.8231 330.422C38.4852 337.936 51.9321 346.679 56.7057 349.852C65.8675 355.942 69.3396 357.395 73.5852 356.915C80.8895 356.089 84.2606 352.535 97.542 331.656C100.923 326.342 113.083 307.297 124.565 289.335C146.828 254.511 147.674 253.137 150.917 246.561C155.901 236.455 157.322 229.668 158.528 210.216C159.731 190.797 161.04 184.606 167.203 169.189C172.624 155.629 178.669 143.919 187.983 128.938L192.517 121.645L194.157 122.496C196.776 123.855 200.269 123.579 202.316 121.852C204.818 119.739 206.203 115.967 205.721 112.579C205.378 110.17 204.784 109.325 200.438 105.071C190.646 95.4854 175.759 85.5536 171.297 85.6303C170.187 85.6489 167.897 86.2949 166.208 87.0649ZM176.953 102.127C184.699 106.34 186.929 107.906 192.822 113.267C195.772 115.95 196.481 116.925 196.179 117.881C195.92 118.697 195.466 118.976 194.781 118.736C194.223 118.541 188.056 114.578 181.077 109.928C169.678 102.336 168.386 101.308 168.384 99.8274C168.383 98.9214 168.677 98.1795 169.039 98.1795C169.399 98.1795 172.961 99.9557 176.953 102.127ZM227.602 101.258C221.27 102.052 222.004 103.974 228.971 104.841C238.352 106.01 249.193 111.01 256.67 117.617C258.744 119.451 260.902 120.95 261.465 120.95C263.47 120.95 265.143 119.19 265.143 117.082C265.143 115.416 264.585 114.566 261.833 112.043C254.014 104.874 238.287 99.9191 227.602 101.258ZM126.087 169.938C122.439 174.286 113.923 182.373 105.922 189.087C92.2912 200.525 90.2413 203.002 74.6066 226.933C28.0893 298.134 25.3693 301.951 20.4906 302.869C16.4355 303.632 13.8797 300.832 15.2875 297.17C15.6137 296.321 20.0462 289.29 25.1375 281.545C39.7563 259.306 56.981 233.139 65.3718 220.423C79.4106 199.147 83.4226 195.436 109.098 179.971C113.45 177.35 119.364 173.407 122.239 171.211C125.114 169.013 127.693 167.187 127.971 167.153C128.248 167.12 127.4 168.372 126.087 169.938Z" fill="#FF6700"/>
</svg>
